<svg version="1.1" xmlns="http://www.w3.org/2000/svg" viewBox="0 0 99.24052672795733 92.1701129973203" width="297.721580183872" height="276.5103389919609">
  <!-- svg-source:excalidraw -->
  
  <defs>
    <style class="style-fonts">
      @font-face {
        font-family: "Virgil";
        src: url("https://excalidraw.com/Virgil.woff2");
      }
      @font-face {
        font-family: "Cascadia";
        src: url("https://excalidraw.com/Cascadia.woff2");
      }
      @font-face {
        font-family: "Assistant";
        src: url("https://excalidraw.com/Assistant-Regular.woff2");
      }
    </style>
    
  </defs>
  <g stroke-linecap="round" transform="translate(10 10) rotate(0 39.62026336397912 36.08505649866015)"><path d="M64.92 8.67 C70.68 13.09, 76.26 21.56, 77.85 28.41 C79.45 35.26, 77.53 43.41, 74.48 49.77 C71.44 56.14, 65.9 63, 59.6 66.6 C53.3 70.19, 44.65 71.9, 36.68 71.34 C28.7 70.79, 17.84 68.02, 11.74 63.25 C5.65 58.48, 1.17 49.97, 0.11 42.72 C-0.95 35.47, 2.08 26.07, 5.38 19.76 C8.68 13.45, 13.56 8.23, 19.91 4.86 C26.27 1.5, 33.89 -2.95, 43.5 -0.42 C53.12 2.1, 71.68 13.86, 77.6 20 C83.53 26.14, 79.64 35.61, 79.08 36.43 M59.67 2.57 C66.64 5.35, 74.65 15.27, 77.54 21.93 C80.44 28.59, 78.56 35.5, 77.04 42.54 C75.52 49.57, 73.75 58.88, 68.42 64.14 C63.09 69.4, 53.05 73.85, 45.05 74.1 C37.05 74.35, 27.34 68.88, 20.44 65.65 C13.54 62.42, 7.32 60.86, 3.65 54.74 C-0.02 48.61, -2.52 36.64, -1.6 28.9 C-0.68 21.17, 3.69 13.47, 9.17 8.32 C14.65 3.17, 23.63 -1.65, 31.29 -2 C38.96 -2.35, 51.3 4.67, 55.16 6.22 C59.02 7.77, 54.05 7.57, 54.44 7.31" stroke="#1e1e1e" stroke-width="4" fill="none"></path></g></svg>